{
    "asset" : {
        "generator" : "Khronos glTF Blender I/O v3.2.43",
        "version" : "2.0"
    },
    "scene" : 0,
    "scenes" : [
        {
            "name" : "Scene",
            "nodes" : [
                0,
                1,
                2,
                3,
                4
            ]
        }
    ],
    "nodes" : [
        {
            "mesh" : 0,
            "name" : "pSphere1",
            "rotation" : [
                0.7071068286895752,
                0,
                0,
                0.7071067094802856
            ],
            "scale" : [
                0.019999999552965164,
                0.019999999552965164,
                0.019999999552965164
            ],
            "translation" : [
                0,
                1.9021131992340088,
                0
            ]
        },
        {
            "mesh" : 1,
            "name" : "pCube1",
            "rotation" : [
                0.7071068286895752,
                0,
                0,
                0.7071067094802856
            ],
            "scale" : [
                0.03999999910593033,
                0.03999999910593033,
                0.03999999910593033
            ],
            "translation" : [
                -7.042415142059326,
                2,
                0
            ]
        },
        {
            "mesh" : 2,
            "name" : "pCylinder1",
            "rotation" : [
                0.7071068286895752,
                0,
                0,
                0.7071067094802856
            ],
            "scale" : [
                0.019999999552965164,
                0.019999999552965164,
                0.019999999552965164
            ],
            "translation" : [
                6.069850444793701,
                2.6490635871887207,
                0
            ]
        },
        {
            "mesh" : 3,
            "name" : "pCone1",
            "rotation" : [
                0.7071068286895752,
                0,
                0,
                0.7071067094802856
            ],
            "scale" : [
                0.019999999552965164,
                0.019999999552965164,
                0.019999999552965164
            ],
            "translation" : [
                0,
                2.2353734970092773,
                7.099771022796631
            ]
        },
        {
            "mesh" : 4,
            "name" : "pTorus1",
            "rotation" : [
                0.7071068286895752,
                0,
                0,
                0.7071067094802856
            ],
            "scale" : [
                0.019999999552965164,
                0.019999999552965164,
                0.019999999552965164
            ],
            "translation" : [
                0,
                0,
                -7.979918956756592
            ]
        }
    ],
    "materials" : [
        {
            "doubleSided" : true,
            "name" : "phong1",
            "pbrMetallicRoughness" : {
                "baseColorFactor" : [
                    0.5,
                    0.5,
                    0.5,
                    0.17419356107711792
                ],
                "metallicFactor" : 0.5,
                "roughnessFactor" : 0.5527864098548889
            }
        },
        {
            "doubleSided" : true,
            "name" : "lambert2",
            "pbrMetallicRoughness" : {
                "baseColorFactor" : [
                    0.5,
                    0.5,
                    0.5,
                    0.5056179761886597
                ],
                "roughnessFactor" : 0.5527864098548889
            }
        },
        {
            "doubleSided" : true,
            "name" : "blinn2",
            "pbrMetallicRoughness" : {
                "baseColorFactor" : [
                    0.5,
                    0.5,
                    0.5,
                    0.15060240030288696
                ],
                "metallicFactor" : 0.5,
                "roughnessFactor" : 0.7487671971321106
            }
        },
        {
            "doubleSided" : true,
            "name" : "surfaceShader1",
            "pbrMetallicRoughness" : {
                "baseColorFactor" : [
                    0.37078651785850525,
                    0.37078651785850525,
                    0.37078651785850525,
                    0.25280898809432983
                ],
                "roughnessFactor" : 0.5527864098548889
            }
        },
        {
            "doubleSided" : true,
            "name" : "aiStandardSurface1",
            "pbrMetallicRoughness" : {
                "baseColorFactor" : [
                    0.800000011920929,
                    0.800000011920929,
                    0.800000011920929,
                    1
                ],
                "roughnessFactor" : 0.5527864098548889
            }
        }
    ],
    "meshes" : [
        {
            "name" : "Mesh",
            "primitives" : [
                {
                    "attributes" : {
                        "POSITION" : 0,
                        "NORMAL" : 1,
                        "TEXCOORD_0" : 2
                    },
                    "indices" : 3,
                    "material" : 0
                }
            ]
        },
        {
            "name" : "Mesh.001",
            "primitives" : [
                {
                    "attributes" : {
                        "POSITION" : 4,
                        "NORMAL" : 5,
                        "TEXCOORD_0" : 6
                    },
                    "indices" : 7,
                    "material" : 1
                }
            ]
        },
        {
            "name" : "Mesh.002",
            "primitives" : [
                {
                    "attributes" : {
                        "POSITION" : 8,
                        "NORMAL" : 9,
                        "TEXCOORD_0" : 10
                    },
                    "indices" : 11,
                    "material" : 2
                }
            ]
        },
        {
            "name" : "Mesh.003",
            "primitives" : [
                {
                    "attributes" : {
                        "POSITION" : 12,
                        "NORMAL" : 13,
                        "TEXCOORD_0" : 14
                    },
                    "indices" : 15,
                    "material" : 3
                }
            ]
        },
        {
            "name" : "Mesh.004",
            "primitives" : [
                {
                    "attributes" : {
                        "POSITION" : 16,
                        "NORMAL" : 17,
                        "TEXCOORD_0" : 18
                    },
                    "indices" : 19,
                    "material" : 4
                }
            ]
        }
    ],
    "accessors" : [
        {
            "bufferView" : 0,
            "componentType" : 5126,
            "count" : 439,
            "max" : [
                100,
                100.00001525878906,
                100
            ],
            "min" : [
                -100.0000228881836,
                -100.00004577636719,
                -100
            ],
            "type" : "VEC3"
        },
        {
            "bufferView" : 1,
            "componentType" : 5126,
            "count" : 439,
            "type" : "VEC3"
        },
        {
            "bufferView" : 2,
            "componentType" : 5126,
            "count" : 439,
            "type" : "VEC2"
        },
        {
            "bufferView" : 3,
            "componentType" : 5123,
            "count" : 2280,
            "type" : "SCALAR"
        },
        {
            "bufferView" : 4,
            "componentType" : 5126,
            "count" : 24,
            "max" : [
                50,
                50,
                50
            ],
            "min" : [
                -50,
                -50,
                -50
            ],
            "type" : "VEC3"
        },
        {
            "bufferView" : 5,
            "componentType" : 5126,
            "count" : 24,
            "type" : "VEC3"
        },
        {
            "bufferView" : 6,
            "componentType" : 5126,
            "count" : 24,
            "type" : "VEC2"
        },
        {
            "bufferView" : 7,
            "componentType" : 5123,
            "count" : 36,
            "type" : "SCALAR"
        },
        {
            "bufferView" : 8,
            "componentType" : 5126,
            "count" : 62,
            "max" : [
                100,
                95.10565948486328,
                100
            ],
            "min" : [
                -100.00001525878906,
                -95.10567474365234,
                -100
            ],
            "type" : "VEC3"
        },
        {
            "bufferView" : 9,
            "componentType" : 5126,
            "count" : 62,
            "type" : "VEC3"
        },
        {
            "bufferView" : 10,
            "componentType" : 5126,
            "count" : 62,
            "type" : "VEC2"
        },
        {
            "bufferView" : 11,
            "componentType" : 5123,
            "count" : 120,
            "type" : "SCALAR"
        },
        {
            "bufferView" : 12,
            "componentType" : 5126,
            "count" : 42,
            "max" : [
                100,
                100.00001525878906,
                100
            ],
            "min" : [
                -100.0000228881836,
                -100.00004577636719,
                -100
            ],
            "type" : "VEC3"
        },
        {
            "bufferView" : 13,
            "componentType" : 5126,
            "count" : 42,
            "type" : "VEC3"
        },
        {
            "bufferView" : 14,
            "componentType" : 5126,
            "count" : 42,
            "type" : "VEC2"
        },
        {
            "bufferView" : 15,
            "componentType" : 5123,
            "count" : 114,
            "type" : "SCALAR"
        },
        {
            "bufferView" : 16,
            "componentType" : 5126,
            "count" : 441,
            "max" : [
                150.00001525878906,
                150.00003051757812,
                50.000022888183594
            ],
            "min" : [
                -150.0000457763672,
                -150.00009155273438,
                -50.00000762939453
            ],
            "type" : "VEC3"
        },
        {
            "bufferView" : 17,
            "componentType" : 5126,
            "count" : 441,
            "type" : "VEC3"
        },
        {
            "bufferView" : 18,
            "componentType" : 5126,
            "count" : 441,
            "type" : "VEC2"
        },
        {
            "bufferView" : 19,
            "componentType" : 5123,
            "count" : 2400,
            "type" : "SCALAR"
        }
    ],
    "bufferViews" : [
        {
            "buffer" : 0,
            "byteLength" : 5268,
            "byteOffset" : 0
        },
        {
            "buffer" : 0,
            "byteLength" : 5268,
            "byteOffset" : 5268
        },
        {
            "buffer" : 0,
            "byteLength" : 3512,
            "byteOffset" : 10536
        },
        {
            "buffer" : 0,
            "byteLength" : 4560,
            "byteOffset" : 14048
        },
        {
            "buffer" : 0,
            "byteLength" : 288,
            "byteOffset" : 18608
        },
        {
            "buffer" : 0,
            "byteLength" : 288,
            "byteOffset" : 18896
        },
        {
            "buffer" : 0,
            "byteLength" : 192,
            "byteOffset" : 19184
        },
        {
            "buffer" : 0,
            "byteLength" : 72,
            "byteOffset" : 19376
        },
        {
            "buffer" : 0,
            "byteLength" : 744,
            "byteOffset" : 19448
        },
        {
            "buffer" : 0,
            "byteLength" : 744,
            "byteOffset" : 20192
        },
        {
            "buffer" : 0,
            "byteLength" : 496,
            "byteOffset" : 20936
        },
        {
            "buffer" : 0,
            "byteLength" : 240,
            "byteOffset" : 21432
        },
        {
            "buffer" : 0,
            "byteLength" : 504,
            "byteOffset" : 21672
        },
        {
            "buffer" : 0,
            "byteLength" : 504,
            "byteOffset" : 22176
        },
        {
            "buffer" : 0,
            "byteLength" : 336,
            "byteOffset" : 22680
        },
        {
            "buffer" : 0,
            "byteLength" : 228,
            "byteOffset" : 23016
        },
        {
            "buffer" : 0,
            "byteLength" : 5292,
            "byteOffset" : 23244
        },
        {
            "buffer" : 0,
            "byteLength" : 5292,
            "byteOffset" : 28536
        },
        {
            "buffer" : 0,
            "byteLength" : 3528,
            "byteOffset" : 33828
        },
        {
            "buffer" : 0,
            "byteLength" : 4800,
            "byteOffset" : 37356
        }
    ],
    "buffers" : [
        {
            "byteLength" : 42156,
            "uri" : "data:application/octet-stream;base64,"
        }
    ]
}
