{
    "asset" : {
        "generator" : "Khronos glTF Blender I/O v3.2.43",
        "version" : "2.0"
    },
    "scene" : 0,
    "scenes" : [
        {
            "name" : "Scene",
            "nodes" : [
                0
            ]
        }
    ],
    "nodes" : [
        {
            "mesh" : 0,
            "name" : "Glass_Test",
            "rotation" : [
                0.7071068286895752,
                0,
                0,
                0.7071067094802856
            ]
        }
    ],
    "materials" : [
        {
            "alphaMode" : "BLEND",
            "doubleSided" : true,
            "name" : "lambert2SG",
            "pbrMetallicRoughness" : {
                "baseColorFactor" : [
                    0.5,
                    0.5,
                    0.5,
                    1
                ],
                "metallicFactor" : 0
            }
        },
        {
            "alphaMode" : "BLEND",
            "doubleSided" : true,
            "name" : "phong1SG",
            "pbrMetallicRoughness" : {
                "baseColorFactor" : [
                    0.5,
                    0.5,
                    0.5,
                    1
                ],
                "metallicFactor" : 0,
                "roughnessFactor" : 0.8658359050750732
            }
        },
        {
            "alphaMode" : "BLEND",
            "doubleSided" : true,
            "name" : "surfaceShader1SG",
            "pbrMetallicRoughness" : {
                "baseColorFactor" : [
                    0,
                    0,
                    0,
                    1
                ],
                "metallicFactor" : 0
            }
        },
        {
            "alphaMode" : "BLEND",
            "doubleSided" : true,
            "name" : "aiStandardSurface1SG",
            "pbrMetallicRoughness" : {
                "baseColorFactor" : [
                    0,
                    0,
                    0,
                    1
                ],
                "metallicFactor" : 0
            }
        },
        {
            "alphaMode" : "BLEND",
            "doubleSided" : true,
            "name" : "blinn2SG",
            "pbrMetallicRoughness" : {
                "baseColorFactor" : [
                    0.5,
                    0.5,
                    0.5,
                    1
                ],
                "metallicFactor" : 0
            }
        }
    ],
    "meshes" : [
        {
            "name" : "Glass_Test",
            "primitives" : [
                {
                    "attributes" : {
                        "POSITION" : 0,
                        "NORMAL" : 1,
                        "TEXCOORD_0" : 2
                    },
                    "indices" : 3,
                    "material" : 0
                },
                {
                    "attributes" : {
                        "POSITION" : 4,
                        "NORMAL" : 5,
                        "TEXCOORD_0" : 6
                    },
                    "indices" : 7,
                    "material" : 1
                },
                {
                    "attributes" : {
                        "POSITION" : 8,
                        "NORMAL" : 9,
                        "TEXCOORD_0" : 10
                    },
                    "indices" : 11,
                    "material" : 2
                },
                {
                    "attributes" : {
                        "POSITION" : 12,
                        "NORMAL" : 13,
                        "TEXCOORD_0" : 14
                    },
                    "indices" : 15,
                    "material" : 3
                },
                {
                    "attributes" : {
                        "POSITION" : 16,
                        "NORMAL" : 17,
                        "TEXCOORD_0" : 18
                    },
                    "indices" : 19,
                    "material" : 4
                }
            ]
        }
    ],
    "accessors" : [
        {
            "bufferView" : 0,
            "componentType" : 5126,
            "count" : 24,
            "max" : [
                -504.2414855957031,
                200,
                9.999999974752427e-07
            ],
            "min" : [
                -904.2415161132812,
                -200,
                -400
            ],
            "type" : "VEC3"
        },
        {
            "bufferView" : 1,
            "componentType" : 5126,
            "count" : 24,
            "type" : "VEC3"
        },
        {
            "bufferView" : 2,
            "componentType" : 5126,
            "count" : 24,
            "type" : "VEC2"
        },
        {
            "bufferView" : 3,
            "componentType" : 5123,
            "count" : 36,
            "type" : "SCALAR"
        },
        {
            "bufferView" : 4,
            "componentType" : 5126,
            "count" : 439,
            "max" : [
                200,
                200.00003051757812,
                9.788678169250488
            ],
            "min" : [
                -200.0000457763672,
                -200.00009155273438,
                -390.2113342285156
            ],
            "type" : "VEC3"
        },
        {
            "bufferView" : 5,
            "componentType" : 5126,
            "count" : 439,
            "type" : "VEC3"
        },
        {
            "bufferView" : 6,
            "componentType" : 5126,
            "count" : 439,
            "type" : "VEC2"
        },
        {
            "bufferView" : 7,
            "componentType" : 5123,
            "count" : 2280,
            "type" : "SCALAR"
        },
        {
            "bufferView" : 8,
            "componentType" : 5126,
            "count" : 42,
            "max" : [
                200,
                909.9771728515625,
                -23.5373477935791
            ],
            "min" : [
                -200.0000457763672,
                509.9770202636719,
                -423.537353515625
            ],
            "type" : "VEC3"
        },
        {
            "bufferView" : 9,
            "componentType" : 5126,
            "count" : 42,
            "type" : "VEC3"
        },
        {
            "bufferView" : 10,
            "componentType" : 5126,
            "count" : 42,
            "type" : "VEC2"
        },
        {
            "bufferView" : 11,
            "componentType" : 5123,
            "count" : 114,
            "type" : "SCALAR"
        },
        {
            "bufferView" : 12,
            "componentType" : 5126,
            "count" : 441,
            "max" : [
                300.0000305175781,
                -497.9918212890625,
                100.00004577636719
            ],
            "min" : [
                -300.0000915527344,
                -1097.9920654296875,
                -100.00001525878906
            ],
            "type" : "VEC3"
        },
        {
            "bufferView" : 13,
            "componentType" : 5126,
            "count" : 441,
            "type" : "VEC3"
        },
        {
            "bufferView" : 14,
            "componentType" : 5126,
            "count" : 441,
            "type" : "VEC2"
        },
        {
            "bufferView" : 15,
            "componentType" : 5123,
            "count" : 2400,
            "type" : "SCALAR"
        },
        {
            "bufferView" : 16,
            "componentType" : 5126,
            "count" : 62,
            "max" : [
                806.9850463867188,
                190.21131896972656,
                -64.90635681152344
            ],
            "min" : [
                406.9849853515625,
                -190.2113494873047,
                -464.9063720703125
            ],
            "type" : "VEC3"
        },
        {
            "bufferView" : 17,
            "componentType" : 5126,
            "count" : 62,
            "type" : "VEC3"
        },
        {
            "bufferView" : 18,
            "componentType" : 5126,
            "count" : 62,
            "type" : "VEC2"
        },
        {
            "bufferView" : 19,
            "componentType" : 5123,
            "count" : 120,
            "type" : "SCALAR"
        }
    ],
    "bufferViews" : [
        {
            "buffer" : 0,
            "byteLength" : 288,
            "byteOffset" : 0
        },
        {
            "buffer" : 0,
            "byteLength" : 288,
            "byteOffset" : 288
        },
        {
            "buffer" : 0,
            "byteLength" : 192,
            "byteOffset" : 576
        },
        {
            "buffer" : 0,
            "byteLength" : 72,
            "byteOffset" : 768
        },
        {
            "buffer" : 0,
            "byteLength" : 5268,
            "byteOffset" : 840
        },
        {
            "buffer" : 0,
            "byteLength" : 5268,
            "byteOffset" : 6108
        },
        {
            "buffer" : 0,
            "byteLength" : 3512,
            "byteOffset" : 11376
        },
        {
            "buffer" : 0,
            "byteLength" : 4560,
            "byteOffset" : 14888
        },
        {
            "buffer" : 0,
            "byteLength" : 504,
            "byteOffset" : 19448
        },
        {
            "buffer" : 0,
            "byteLength" : 504,
            "byteOffset" : 19952
        },
        {
            "buffer" : 0,
            "byteLength" : 336,
            "byteOffset" : 20456
        },
        {
            "buffer" : 0,
            "byteLength" : 228,
            "byteOffset" : 20792
        },
        {
            "buffer" : 0,
            "byteLength" : 5292,
            "byteOffset" : 21020
        },
        {
            "buffer" : 0,
            "byteLength" : 5292,
            "byteOffset" : 26312
        },
        {
            "buffer" : 0,
            "byteLength" : 3528,
            "byteOffset" : 31604
        },
        {
            "buffer" : 0,
            "byteLength" : 4800,
            "byteOffset" : 35132
        },
        {
            "buffer" : 0,
            "byteLength" : 744,
            "byteOffset" : 39932
        },
        {
            "buffer" : 0,
            "byteLength" : 744,
            "byteOffset" : 40676
        },
        {
            "buffer" : 0,
            "byteLength" : 496,
            "byteOffset" : 41420
        },
        {
            "buffer" : 0,
            "byteLength" : 240,
            "byteOffset" : 41916
        }
    ],
    "buffers" : [
        {
            "byteLength" : 42156,
            "uri" : "data:application/octet-stream;base64,"
        }
    ]
}
