{
    "asset" : {
        "generator" : "Khronos glTF Blender I/O v3.2.43",
        "version" : "2.0"
    },
    "scene" : 0,
    "scenes" : [
        {
            "name" : "Scene",
            "nodes" : [
                0,
                1,
                2,
                3,
                4,
                5
            ]
        }
    ],
    "nodes" : [
        {
            "mesh" : 0,
            "name" : "pasted__pCube1",
            "rotation" : [
                0.5,
                0.5,
                -0.5,
                0.5
            ],
            "scale" : [
                23.542694091796875,
                16.312955856323242,
                11.098956108093262
            ],
            "translation" : [
                -0.22786132991313934,
                5.507944107055664,
                0
            ]
        },
        {
            "mesh" : 1,
            "name" : "pSphere1",
            "rotation" : [
                0.7071068286895752,
                0,
                0,
                0.7071067094802856
            ],
            "scale" : [
                0.8283839821815491,
                0.8283839821815491,
                0.8283839821815491
            ],
            "translation" : [
                0.08810488134622574,
                1.1656980514526367,
                -10.523116111755371
            ]
        },
        {
            "mesh" : 2,
            "name" : "pCube1",
            "rotation" : [
                0.7071068286895752,
                0,
                0,
                0.7071067094802856
            ],
            "scale" : [
                1.5318833589553833,
                1.5318833589553833,
                1.5318833589553833
            ],
            "translation" : [
                6.27117919921875,
                0.7555176615715027,
                0.013949412852525711
            ]
        },
        {
            "mesh" : 3,
            "name" : "pCylinder1",
            "rotation" : [
                0.7071068286895752,
                0,
                0,
                0.7071067094802856
            ],
            "scale" : [
                0.7634364366531372,
                0.7634364366531372,
                0.7634364366531372
            ],
            "translation" : [
                -6.893415451049805,
                1.1197634935379028,
                0.07253953069448471
            ]
        },
        {
            "mesh" : 4,
            "name" : "pCone1",
            "rotation" : [
                0.7071067094802856,
                0,
                0,
                0.7071068286895752
            ],
            "scale" : [
                0.8491062521934509,
                0.8491062521934509,
                0.8491062521934509
            ],
            "translation" : [
                -0.009207659400999546,
                1.6159217357635498,
                10.412446022033691
            ]
        },
        {
            "mesh" : 5,
            "name" : "pTorus1",
            "rotation" : [
                0.7071068286895752,
                0,
                0,
                0.7071067094802856
            ],
            "scale" : [
                0.2784121036529541,
                0.2784121036529541,
                0.2784121036529541
            ],
            "translation" : [
                -0.3584645092487335,
                1.395959496498108,
                -0.23193353414535522
            ]
        }
    ],
    "materials" : [
        {
            "doubleSided" : true,
            "name" : "phong1",
            "pbrMetallicRoughness" : {
                "baseColorFactor" : [
                    1,
                    0,
                    1,
                    1
                ],
                "metallicFactor" : 0.5,
                "roughnessFactor" : 0.5527864098548889
            }
        },
        {
            "doubleSided" : true,
            "name" : "phong2",
            "pbrMetallicRoughness" : {
                "baseColorFactor" : [
                    1,
                    0,
                    0,
                    1
                ],
                "metallicFactor" : 0.5,
                "roughnessFactor" : 0.5527864098548889
            }
        },
        {
            "doubleSided" : true,
            "name" : "phong3",
            "pbrMetallicRoughness" : {
                "baseColorFactor" : [
                    1,
                    1,
                    0,
                    1
                ],
                "metallicFactor" : 0.5,
                "roughnessFactor" : 0.5527864098548889
            }
        },
        {
            "doubleSided" : true,
            "name" : "phong4",
            "pbrMetallicRoughness" : {
                "baseColorFactor" : [
                    0,
                    1,
                    1,
                    1
                ],
                "metallicFactor" : 0.5,
                "roughnessFactor" : 0.5527864098548889
            }
        },
        {
            "doubleSided" : true,
            "name" : "phong5",
            "pbrMetallicRoughness" : {
                "metallicFactor" : 0.5,
                "roughnessFactor" : 0.5527864098548889
            }
        },
        {
            "doubleSided" : true,
            "name" : "lambert1",
            "pbrMetallicRoughness" : {
                "baseColorFactor" : [
                    0.5,
                    0.5,
                    0.5,
                    1
                ],
                "roughnessFactor" : 0.5527864098548889
            }
        }
    ],
    "meshes" : [
        {
            "name" : "Mesh",
            "primitives" : [
                {
                    "attributes" : {
                        "POSITION" : 0,
                        "NORMAL" : 1,
                        "TEXCOORD_0" : 2
                    },
                    "indices" : 3,
                    "material" : 0
                }
            ]
        },
        {
            "name" : "Mesh.001",
            "primitives" : [
                {
                    "attributes" : {
                        "POSITION" : 4,
                        "NORMAL" : 5,
                        "TEXCOORD_0" : 6
                    },
                    "indices" : 7,
                    "material" : 1
                }
            ]
        },
        {
            "name" : "Mesh.002",
            "primitives" : [
                {
                    "attributes" : {
                        "POSITION" : 8,
                        "NORMAL" : 9,
                        "TEXCOORD_0" : 10
                    },
                    "indices" : 11,
                    "material" : 2
                }
            ]
        },
        {
            "name" : "Mesh.003",
            "primitives" : [
                {
                    "attributes" : {
                        "POSITION" : 12,
                        "NORMAL" : 13,
                        "TEXCOORD_0" : 14
                    },
                    "indices" : 15,
                    "material" : 3
                }
            ]
        },
        {
            "name" : "Mesh.004",
            "primitives" : [
                {
                    "attributes" : {
                        "POSITION" : 16,
                        "NORMAL" : 17,
                        "TEXCOORD_0" : 18
                    },
                    "indices" : 19,
                    "material" : 4
                }
            ]
        },
        {
            "name" : "Mesh.005",
            "primitives" : [
                {
                    "attributes" : {
                        "POSITION" : 20,
                        "NORMAL" : 21,
                        "TEXCOORD_0" : 22
                    },
                    "indices" : 23,
                    "material" : 5
                }
            ]
        }
    ],
    "accessors" : [
        {
            "bufferView" : 0,
            "componentType" : 5126,
            "count" : 24,
            "max" : [
                0.5,
                0.5,
                0.5
            ],
            "min" : [
                -0.5,
                -0.5,
                -0.5
            ],
            "type" : "VEC3"
        },
        {
            "bufferView" : 1,
            "componentType" : 5126,
            "count" : 24,
            "type" : "VEC3"
        },
        {
            "bufferView" : 2,
            "componentType" : 5126,
            "count" : 24,
            "type" : "VEC2"
        },
        {
            "bufferView" : 3,
            "componentType" : 5123,
            "count" : 36,
            "type" : "SCALAR"
        },
        {
            "bufferView" : 4,
            "componentType" : 5126,
            "count" : 439,
            "max" : [
                1,
                1.0000001192092896,
                1
            ],
            "min" : [
                -1.000000238418579,
                -1.0000004768371582,
                -1
            ],
            "type" : "VEC3"
        },
        {
            "bufferView" : 5,
            "componentType" : 5126,
            "count" : 439,
            "type" : "VEC3"
        },
        {
            "bufferView" : 6,
            "componentType" : 5126,
            "count" : 439,
            "type" : "VEC2"
        },
        {
            "bufferView" : 7,
            "componentType" : 5123,
            "count" : 2280,
            "type" : "SCALAR"
        },
        {
            "bufferView" : 8,
            "componentType" : 5126,
            "count" : 24,
            "max" : [
                0.5,
                0.5,
                0.5
            ],
            "min" : [
                -0.5,
                -0.5,
                -0.5
            ],
            "type" : "VEC3"
        },
        {
            "bufferView" : 9,
            "componentType" : 5126,
            "count" : 24,
            "type" : "VEC3"
        },
        {
            "bufferView" : 10,
            "componentType" : 5126,
            "count" : 24,
            "type" : "VEC2"
        },
        {
            "bufferView" : 11,
            "componentType" : 5123,
            "count" : 36,
            "type" : "SCALAR"
        },
        {
            "bufferView" : 12,
            "componentType" : 5126,
            "count" : 84,
            "max" : [
                1,
                1.0000001192092896,
                1
            ],
            "min" : [
                -1.000000238418579,
                -1.0000004768371582,
                -1
            ],
            "type" : "VEC3"
        },
        {
            "bufferView" : 13,
            "componentType" : 5126,
            "count" : 84,
            "type" : "VEC3"
        },
        {
            "bufferView" : 14,
            "componentType" : 5126,
            "count" : 84,
            "type" : "VEC2"
        },
        {
            "bufferView" : 15,
            "componentType" : 5123,
            "count" : 240,
            "type" : "SCALAR"
        },
        {
            "bufferView" : 16,
            "componentType" : 5126,
            "count" : 42,
            "max" : [
                1,
                1.0000001192092896,
                1
            ],
            "min" : [
                -1.000000238418579,
                -1.0000004768371582,
                -1
            ],
            "type" : "VEC3"
        },
        {
            "bufferView" : 17,
            "componentType" : 5126,
            "count" : 42,
            "type" : "VEC3"
        },
        {
            "bufferView" : 18,
            "componentType" : 5126,
            "count" : 42,
            "type" : "VEC2"
        },
        {
            "bufferView" : 19,
            "componentType" : 5123,
            "count" : 114,
            "type" : "SCALAR"
        },
        {
            "bufferView" : 20,
            "componentType" : 5126,
            "count" : 441,
            "max" : [
                1.5000001192092896,
                1.5000003576278687,
                0.5000002384185791
            ],
            "min" : [
                -1.5000004768371582,
                -1.5000008344650269,
                -0.5000000596046448
            ],
            "type" : "VEC3"
        },
        {
            "bufferView" : 21,
            "componentType" : 5126,
            "count" : 441,
            "type" : "VEC3"
        },
        {
            "bufferView" : 22,
            "componentType" : 5126,
            "count" : 441,
            "type" : "VEC2"
        },
        {
            "bufferView" : 23,
            "componentType" : 5123,
            "count" : 2400,
            "type" : "SCALAR"
        }
    ],
    "bufferViews" : [
        {
            "buffer" : 0,
            "byteLength" : 288,
            "byteOffset" : 0
        },
        {
            "buffer" : 0,
            "byteLength" : 288,
            "byteOffset" : 288
        },
        {
            "buffer" : 0,
            "byteLength" : 192,
            "byteOffset" : 576
        },
        {
            "buffer" : 0,
            "byteLength" : 72,
            "byteOffset" : 768
        },
        {
            "buffer" : 0,
            "byteLength" : 5268,
            "byteOffset" : 840
        },
        {
            "buffer" : 0,
            "byteLength" : 5268,
            "byteOffset" : 6108
        },
        {
            "buffer" : 0,
            "byteLength" : 3512,
            "byteOffset" : 11376
        },
        {
            "buffer" : 0,
            "byteLength" : 4560,
            "byteOffset" : 14888
        },
        {
            "buffer" : 0,
            "byteLength" : 288,
            "byteOffset" : 19448
        },
        {
            "buffer" : 0,
            "byteLength" : 288,
            "byteOffset" : 19736
        },
        {
            "buffer" : 0,
            "byteLength" : 192,
            "byteOffset" : 20024
        },
        {
            "buffer" : 0,
            "byteLength" : 72,
            "byteOffset" : 20216
        },
        {
            "buffer" : 0,
            "byteLength" : 1008,
            "byteOffset" : 20288
        },
        {
            "buffer" : 0,
            "byteLength" : 1008,
            "byteOffset" : 21296
        },
        {
            "buffer" : 0,
            "byteLength" : 672,
            "byteOffset" : 22304
        },
        {
            "buffer" : 0,
            "byteLength" : 480,
            "byteOffset" : 22976
        },
        {
            "buffer" : 0,
            "byteLength" : 504,
            "byteOffset" : 23456
        },
        {
            "buffer" : 0,
            "byteLength" : 504,
            "byteOffset" : 23960
        },
        {
            "buffer" : 0,
            "byteLength" : 336,
            "byteOffset" : 24464
        },
        {
            "buffer" : 0,
            "byteLength" : 228,
            "byteOffset" : 24800
        },
        {
            "buffer" : 0,
            "byteLength" : 5292,
            "byteOffset" : 25028
        },
        {
            "buffer" : 0,
            "byteLength" : 5292,
            "byteOffset" : 30320
        },
        {
            "buffer" : 0,
            "byteLength" : 3528,
            "byteOffset" : 35612
        },
        {
            "buffer" : 0,
            "byteLength" : 4800,
            "byteOffset" : 39140
        }
    ],
    "buffers" : [
        {
            "byteLength" : 43940,
            "uri" : "data:application/octet-stream;base64,"
        }
    ]
}
