{
    "asset" : {
        "generator" : "Khronos glTF Blender I/O v3.2.43",
        "version" : "2.0"
    },
    "extensionsUsed" : [
        "KHR_texture_transform"
    ],
    "extensionsRequired" : [
        "KHR_texture_transform"
    ],
    "scene" : 0,
    "scenes" : [
        {
            "name" : "Scene",
            "nodes" : [
                0
            ]
        }
    ],
    "nodes" : [
        {
            "mesh" : 0,
            "name" : "pSphere2",
            "rotation" : [
                0.7071068286895752,
                0,
                0,
                0.7071067094802856
            ],
            "scale" : [
                0.009999999776482582,
                0.009999999776482582,
                0.009999999776482582
            ]
        }
    ],
    "materials" : [
        {
            "doubleSided" : true,
            "name" : "phong2",
            "normalTexture" : {
                "extensions" : {
                    "KHR_texture_transform" : {
                        "offset" : [
                            0,
                            -18.99999970197678
                        ],
                        "scale" : [
                            19.99999970197678,
                            19.99999970197678
                        ]
                    }
                },
                "index" : 0
            },
            "pbrMetallicRoughness" : {
                "baseColorFactor" : [
                    1,
                    1,
                    0,
                    1
                ],
                "metallicFactor" : 0.5,
                "roughnessFactor" : 0.5527864098548889
            }
        },
        {
            "doubleSided" : true,
            "name" : "lambert1",
            "pbrMetallicRoughness" : {
                "baseColorFactor" : [
                    0.5,
                    0.5,
                    0.5,
                    1
                ],
                "roughnessFactor" : 0.5527864098548889
            }
        },
        {
            "doubleSided" : true,
            "name" : "phong1",
            "normalTexture" : {
                "extensions" : {
                    "KHR_texture_transform" : {
                        "offset" : [
                            0,
                            -78.99999880790712
                        ],
                        "scale" : [
                            79.99999880790712,
                            79.99999880790712
                        ]
                    }
                },
                "index" : 1,
                "scale" : 0.009999999776482582
            },
            "pbrMetallicRoughness" : {
                "baseColorTexture" : {
                    "extensions" : {
                        "KHR_texture_transform" : {
                            "offset" : [
                                0,
                                -78.99999880790712
                            ],
                            "scale" : [
                                79.99999880790712,
                                79.99999880790712
                            ]
                        }
                    },
                    "index" : 2
                },
                "metallicFactor" : 0.5,
                "roughnessFactor" : 0.5527864098548889
            }
        },
        {
            "doubleSided" : true,
            "name" : "Floor",
            "pbrMetallicRoughness" : {
                "baseColorTexture" : {
                    "extensions" : {
                        "KHR_texture_transform" : {
                            "offset" : [
                                0,
                                -38.99999940395356
                            ],
                            "scale" : [
                                39.99999940395356,
                                39.99999940395356
                            ]
                        }
                    },
                    "index" : 3
                },
                "metallicFactor" : 0.5,
                "roughnessFactor" : 0.3675444722175598
            }
        },
        {
            "doubleSided" : true,
            "name" : "phong5",
            "pbrMetallicRoughness" : {
                "baseColorTexture" : {
                    "extensions" : {
                        "KHR_texture_transform" : {
                            "offset" : [
                                0,
                                -18.99999970197678
                            ],
                            "scale" : [
                                19.99999970197678,
                                19.99999970197678
                            ]
                        }
                    },
                    "index" : 4
                },
                "metallicFactor" : 0.5,
                "roughnessFactor" : 0.5527864098548889
            }
        },
        {
            "doubleSided" : true,
            "name" : "phong3",
            "pbrMetallicRoughness" : {
                "baseColorTexture" : {
                    "index" : 5
                },
                "metallicFactor" : 0.5,
                "roughnessFactor" : 0.5527864098548889
            }
        }
    ],
    "meshes" : [
        {
            "name" : "Mesh",
            "primitives" : [
                {
                    "attributes" : {
                        "POSITION" : 0,
                        "NORMAL" : 1,
                        "TEXCOORD_0" : 2
                    },
                    "indices" : 3,
                    "material" : 0
                },
                {
                    "attributes" : {
                        "POSITION" : 4,
                        "NORMAL" : 5,
                        "TEXCOORD_0" : 6
                    },
                    "indices" : 7,
                    "material" : 1
                },
                {
                    "attributes" : {
                        "POSITION" : 8,
                        "NORMAL" : 9,
                        "TEXCOORD_0" : 10
                    },
                    "indices" : 11,
                    "material" : 2
                },
                {
                    "attributes" : {
                        "POSITION" : 12,
                        "NORMAL" : 13,
                        "TEXCOORD_0" : 14
                    },
                    "indices" : 15,
                    "material" : 3
                },
                {
                    "attributes" : {
                        "POSITION" : 16,
                        "NORMAL" : 17,
                        "TEXCOORD_0" : 18
                    },
                    "indices" : 19,
                    "material" : 4
                },
                {
                    "attributes" : {
                        "POSITION" : 20,
                        "NORMAL" : 21,
                        "TEXCOORD_0" : 22
                    },
                    "indices" : 23,
                    "material" : 5
                }
            ]
        }
    ],
    "textures" : [
        {
            "sampler" : 0,
            "source" : 0
        },
        {
            "sampler" : 0,
            "source" : 0
        },
        {
            "sampler" : 0,
            "source" : 1
        },
        {
            "sampler" : 0,
            "source" : 2
        },
        {
            "sampler" : 0,
            "source" : 3
        },
        {
            "sampler" : 0,
            "source" : 4
        }
    ],
    "images" : [
        {
            "bufferView" : 4,
            "mimeType" : "image/jpeg",
            "name" : "k_Blanco-4_a_bump"
        },
        {
            "bufferView" : 13,
            "mimeType" : "image/jpeg",
            "name" : "k_Blanco-4_a"
        },
        {
            "bufferView" : 18,
            "mimeType" : "image/jpeg",
            "name" : "Wood_Grain_Light"
        },
        {
            "bufferView" : 23,
            "mimeType" : "image/jpeg",
            "name" : "MetalGrid_Diffuse"
        },
        {
            "bufferView" : 28,
            "mimeType" : "image/png",
            "name" : "16x16-in-1024x1024"
        }
    ],
    "accessors" : [
        {
            "bufferView" : 0,
            "componentType" : 5126,
            "count" : 439,
            "max" : [
                96.45956420898438,
                34.85106658935547,
                -32.92448806762695
            ],
            "min" : [
                26.757427215576172,
                -34.851078033447266,
                -102.62661743164062
            ],
            "type" : "VEC3"
        },
        {
            "bufferView" : 1,
            "componentType" : 5126,
            "count" : 439,
            "type" : "VEC3"
        },
        {
            "bufferView" : 2,
            "componentType" : 5126,
            "count" : 439,
            "type" : "VEC2"
        },
        {
            "bufferView" : 3,
            "componentType" : 5123,
            "count" : 2280,
            "type" : "SCALAR"
        },
        {
            "bufferView" : 5,
            "componentType" : 5126,
            "count" : 116,
            "max" : [
                232.81256103515625,
                214.3997802734375,
                24.954374313354492
            ],
            "min" : [
                -213.2967529296875,
                -221.2392578125,
                -254.46359252929688
            ],
            "type" : "VEC3"
        },
        {
            "bufferView" : 6,
            "componentType" : 5126,
            "count" : 116,
            "type" : "VEC3"
        },
        {
            "bufferView" : 7,
            "componentType" : 5126,
            "count" : 116,
            "type" : "VEC2"
        },
        {
            "bufferView" : 8,
            "componentType" : 5123,
            "count" : 174,
            "type" : "SCALAR"
        },
        {
            "bufferView" : 9,
            "componentType" : 5126,
            "count" : 20,
            "max" : [
                232.81256103515625,
                214.3997802734375,
                23.200626373291016
            ],
            "min" : [
                -212.03402709960938,
                -219.88446044921875,
                -254.15374755859375
            ],
            "type" : "VEC3"
        },
        {
            "bufferView" : 10,
            "componentType" : 5126,
            "count" : 20,
            "type" : "VEC3"
        },
        {
            "bufferView" : 11,
            "componentType" : 5126,
            "count" : 20,
            "type" : "VEC2"
        },
        {
            "bufferView" : 12,
            "componentType" : 5123,
            "count" : 30,
            "type" : "SCALAR"
        },
        {
            "bufferView" : 14,
            "componentType" : 5126,
            "count" : 4,
            "max" : [
                222.25350952148438,
                210.1351776123047,
                21.44687843322754
            ],
            "min" : [
                -213.2967529296875,
                -219.48553466796875,
                21.44687843322754
            ],
            "type" : "VEC3"
        },
        {
            "bufferView" : 15,
            "componentType" : 5126,
            "count" : 4,
            "type" : "VEC3"
        },
        {
            "bufferView" : 16,
            "componentType" : 5126,
            "count" : 4,
            "type" : "VEC2"
        },
        {
            "bufferView" : 17,
            "componentType" : 5123,
            "count" : 6,
            "type" : "SCALAR"
        },
        {
            "bufferView" : 19,
            "componentType" : 5126,
            "count" : 4,
            "max" : [
                222.25350952148438,
                210.1351776123047,
                -250.95611572265625
            ],
            "min" : [
                -213.2967529296875,
                -219.48553466796875,
                -250.95611572265625
            ],
            "type" : "VEC3"
        },
        {
            "bufferView" : 20,
            "componentType" : 5126,
            "count" : 4,
            "type" : "VEC3"
        },
        {
            "bufferView" : 21,
            "componentType" : 5126,
            "count" : 4,
            "type" : "VEC2"
        },
        {
            "bufferView" : 22,
            "componentType" : 5123,
            "count" : 6,
            "type" : "SCALAR"
        },
        {
            "bufferView" : 24,
            "componentType" : 5126,
            "count" : 24,
            "max" : [
                -3.739259719848633,
                25.717138290405273,
                -40.586517333984375
            ],
            "min" : [
                -55.17353820800781,
                -25.717138290405273,
                -92.02079772949219
            ],
            "type" : "VEC3"
        },
        {
            "bufferView" : 25,
            "componentType" : 5126,
            "count" : 24,
            "type" : "VEC3"
        },
        {
            "bufferView" : 26,
            "componentType" : 5126,
            "count" : 24,
            "type" : "VEC2"
        },
        {
            "bufferView" : 27,
            "componentType" : 5123,
            "count" : 36,
            "type" : "SCALAR"
        }
    ],
    "bufferViews" : [
        {
            "buffer" : 0,
            "byteLength" : 5268,
            "byteOffset" : 0
        },
        {
            "buffer" : 0,
            "byteLength" : 5268,
            "byteOffset" : 5268
        },
        {
            "buffer" : 0,
            "byteLength" : 3512,
            "byteOffset" : 10536
        },
        {
            "buffer" : 0,
            "byteLength" : 4560,
            "byteOffset" : 14048
        },
        {
            "buffer" : 0,
            "byteLength" : 38162,
            "byteOffset" : 18608
        },
        {
            "buffer" : 0,
            "byteLength" : 1392,
            "byteOffset" : 56772
        },
        {
            "buffer" : 0,
            "byteLength" : 1392,
            "byteOffset" : 58164
        },
        {
            "buffer" : 0,
            "byteLength" : 928,
            "byteOffset" : 59556
        },
        {
            "buffer" : 0,
            "byteLength" : 348,
            "byteOffset" : 60484
        },
        {
            "buffer" : 0,
            "byteLength" : 240,
            "byteOffset" : 60832
        },
        {
            "buffer" : 0,
            "byteLength" : 240,
            "byteOffset" : 61072
        },
        {
            "buffer" : 0,
            "byteLength" : 160,
            "byteOffset" : 61312
        },
        {
            "buffer" : 0,
            "byteLength" : 60,
            "byteOffset" : 61472
        },
        {
            "buffer" : 0,
            "byteLength" : 4016,
            "byteOffset" : 61532
        },
        {
            "buffer" : 0,
            "byteLength" : 48,
            "byteOffset" : 65548
        },
        {
            "buffer" : 0,
            "byteLength" : 48,
            "byteOffset" : 65596
        },
        {
            "buffer" : 0,
            "byteLength" : 32,
            "byteOffset" : 65644
        },
        {
            "buffer" : 0,
            "byteLength" : 12,
            "byteOffset" : 65676
        },
        {
            "buffer" : 0,
            "byteLength" : 50198,
            "byteOffset" : 65688
        },
        {
            "buffer" : 0,
            "byteLength" : 48,
            "byteOffset" : 115888
        },
        {
            "buffer" : 0,
            "byteLength" : 48,
            "byteOffset" : 115936
        },
        {
            "buffer" : 0,
            "byteLength" : 32,
            "byteOffset" : 115984
        },
        {
            "buffer" : 0,
            "byteLength" : 12,
            "byteOffset" : 116016
        },
        {
            "buffer" : 0,
            "byteLength" : 556264,
            "byteOffset" : 116028
        },
        {
            "buffer" : 0,
            "byteLength" : 288,
            "byteOffset" : 672292
        },
        {
            "buffer" : 0,
            "byteLength" : 288,
            "byteOffset" : 672580
        },
        {
            "buffer" : 0,
            "byteLength" : 192,
            "byteOffset" : 672868
        },
        {
            "buffer" : 0,
            "byteLength" : 72,
            "byteOffset" : 673060
        },
        {
            "buffer" : 0,
            "byteLength" : 177018,
            "byteOffset" : 673132
        }
    ],
    "samplers" : [
        {
            "magFilter" : 9729,
            "minFilter" : 9987
        }
    ],
    "buffers" : [
        {
            "byteLength" : 850152,
            "uri" : "data:application/octet-stream;base64,"
        }
    ]
}
